<svg width="605" height="605" viewBox="0 0 605 605" fill="none" xmlns="http://www.w3.org/2000/svg">
<g filter="url(#filter0_in_94_103)">
<path d="M214.165 37.3883C262.981 -11.4273 342.126 -11.4273 390.942 37.3883L567.719 214.165C616.534 262.98 616.534 342.126 567.719 390.942L390.942 567.718C342.126 616.534 262.981 616.534 214.165 567.718L37.3884 390.942C-11.4271 342.126 -11.4272 262.98 37.3884 214.165L214.165 37.3883Z" fill="url(#paint0_linear_94_103)"/>
</g>
<path d="M231.264 90.7107C270.316 51.6583 333.633 51.6583 372.685 90.7107L514.107 232.132C553.159 271.184 553.159 334.501 514.107 373.553L372.685 514.975C333.633 554.027 270.316 554.027 231.264 514.975L89.8427 373.553C50.7902 334.501 50.7902 271.184 89.8427 232.132L231.264 90.7107Z" fill="url(#paint1_linear_94_103)"/>
<path d="M170.508 245.22C176.516 245.22 181.741 245.901 186.184 247.264C190.678 248.577 194.237 249.991 196.862 251.505C199.538 253.02 201.153 254.004 201.709 254.459L192.47 269.832C191.662 269.175 190.274 268.267 188.305 267.105C186.386 265.894 184.064 264.834 181.338 263.925C178.611 262.966 175.658 262.486 172.477 262.486C167.883 262.486 164.197 263.369 161.421 265.136C158.694 266.853 157.331 269.352 157.331 272.634C157.331 274.855 158.063 276.849 159.527 278.616C160.992 280.333 163.137 281.948 165.965 283.463C168.842 284.978 172.351 286.568 176.491 288.234C180.126 289.648 183.584 291.288 186.866 293.156C190.198 295.024 193.151 297.22 195.726 299.745C198.351 302.269 200.421 305.197 201.936 308.529C203.501 311.862 204.284 315.673 204.284 319.965C204.284 324.761 203.299 328.951 201.33 332.536C199.412 336.12 196.736 339.124 193.303 341.547C189.92 343.971 186.033 345.788 181.641 347C177.248 348.212 172.629 348.818 167.782 348.818C161.219 348.818 155.312 348.06 150.061 346.546C144.861 344.981 140.646 343.314 137.414 341.547C134.183 339.78 132.29 338.645 131.735 338.14L141.428 322.161C142.034 322.615 143.17 323.347 144.836 324.357C146.553 325.367 148.622 326.402 151.046 327.462C153.52 328.522 156.195 329.431 159.073 330.188C162.001 330.945 164.98 331.324 168.009 331.324C173.462 331.324 177.576 330.188 180.353 327.916C183.13 325.644 184.518 322.691 184.518 319.056C184.518 316.33 183.635 313.931 181.868 311.862C180.101 309.792 177.602 307.898 174.37 306.182C171.19 304.415 167.378 302.623 162.935 300.805C158.493 298.937 154.353 296.766 150.516 294.292C146.729 291.768 143.675 288.688 141.352 285.053C139.03 281.368 137.869 276.849 137.869 271.498C137.869 266.197 139.358 261.577 142.337 257.639C145.366 253.701 149.355 250.647 154.302 248.476C159.3 246.305 164.702 245.22 170.508 245.22ZM237.658 347H218.347V242.796H237.658V347ZM267.545 320.192C267.696 323.019 268.454 325.543 269.817 327.765C271.18 329.986 273.149 331.728 275.724 332.99C278.349 334.252 281.479 334.883 285.114 334.883C288.396 334.883 291.274 334.479 293.747 333.672C296.272 332.864 298.392 331.879 300.109 330.718C301.876 329.506 303.188 328.345 304.047 327.235L311.998 339.048C310.585 340.815 308.691 342.456 306.318 343.971C303.996 345.435 301.017 346.596 297.382 347.454C293.798 348.363 289.305 348.818 283.903 348.818C277.087 348.818 271.104 347.48 265.955 344.804C260.805 342.128 256.791 338.266 253.914 333.217C251.036 328.169 249.597 322.161 249.597 315.194C249.597 309.135 250.884 303.683 253.459 298.836C256.034 293.939 259.77 290.077 264.667 287.249C269.615 284.422 275.547 283.009 282.464 283.009C288.976 283.009 294.606 284.271 299.351 286.795C304.148 289.269 307.858 292.904 310.484 297.7C313.109 302.496 314.421 308.353 314.421 315.269C314.421 315.673 314.396 316.506 314.346 317.768C314.346 318.98 314.295 319.788 314.194 320.192H267.545ZM296.398 308.302C296.347 306.687 295.843 304.945 294.883 303.077C293.975 301.209 292.536 299.619 290.567 298.306C288.598 296.993 285.972 296.337 282.691 296.337C279.409 296.337 276.708 296.968 274.588 298.23C272.518 299.492 270.953 301.057 269.893 302.925C268.832 304.743 268.227 306.535 268.075 308.302H296.398ZM375.499 347V336.171C375.044 337.281 373.883 338.846 372.015 340.866C370.147 342.885 367.623 344.728 364.442 346.394C361.312 348.01 357.626 348.818 353.386 348.818C347.428 348.818 342.152 347.404 337.558 344.577C332.964 341.699 329.354 337.786 326.729 332.839C324.154 327.84 322.867 322.211 322.867 315.951C322.867 309.691 324.154 304.087 326.729 299.139C329.354 294.141 332.964 290.203 337.558 287.325C342.152 284.447 347.428 283.009 353.386 283.009C357.525 283.009 361.11 283.715 364.139 285.129C367.219 286.492 369.693 288.108 371.561 289.976C373.479 291.793 374.716 293.434 375.271 294.898V284.826H394.355V347H375.499ZM341.723 315.951C341.723 319.434 342.506 322.514 344.071 325.19C345.636 327.815 347.706 329.86 350.281 331.324C352.855 332.788 355.657 333.52 358.687 333.52C361.867 333.52 364.694 332.788 367.168 331.324C369.642 329.809 371.586 327.739 372.999 325.114C374.464 322.438 375.196 319.384 375.196 315.951C375.196 312.518 374.464 309.489 372.999 306.863C371.586 304.188 369.642 302.092 367.168 300.578C364.694 299.063 361.867 298.306 358.687 298.306C355.657 298.306 352.855 299.063 350.281 300.578C347.706 302.042 345.636 304.112 344.071 306.788C342.506 309.413 341.723 312.467 341.723 315.951ZM450.131 284.826H472.244L441.877 314.512L474.97 347H452.327L426.503 321.025V347H407.268V242.796H426.503V307.621L450.131 284.826Z" fill="white"/>
<defs>
<filter id="filter0_in_94_103" x="0.776733" y="0.776611" width="605.553" height="605.553" filterUnits="userSpaceOnUse" color-interpolation-filters="sRGB">
<feFlood flood-opacity="0" result="BackgroundImageFix"/>
<feBlend mode="normal" in="SourceGraphic" in2="BackgroundImageFix" result="shape"/>
<feColorMatrix in="SourceAlpha" type="matrix" values="0 0 0 0 0 0 0 0 0 0 0 0 0 0 0 0 0 0 127 0" result="hardAlpha"/>
<feOffset dx="2" dy="2"/>
<feGaussianBlur stdDeviation="3"/>
<feComposite in2="hardAlpha" operator="arithmetic" k2="-1" k3="1"/>
<feColorMatrix type="matrix" values="0 0 0 0 1 0 0 0 0 1 0 0 0 0 1 0 0 0 0.25 0"/>
<feBlend mode="normal" in2="shape" result="effect1_innerShadow_94_103"/>
<feTurbulence type="fractalNoise" baseFrequency="1.6666666269302368 1.6666666269302368" stitchTiles="stitch" numOctaves="3" result="noise" seed="47" />
<feColorMatrix in="noise" type="luminanceToAlpha" result="alphaNoise" />
<feComponentTransfer in="alphaNoise" result="coloredNoise1">
<feFuncA type="discrete" tableValues="0 0 0 0 0 0 0 0 0 1 1 1 1 1 1 1 1 1 1 1 1 1 1 1 1 1 1 1 1 1 1 1 1 1 1 1 1 1 1 1 0 0 0 0 0 0 0 0 0 0 0 0 0 0 0 0 0 0 0 0 0 0 0 0 0 0 0 0 0 0 0 0 0 0 0 0 0 0 0 0 0 0 0 0 0 0 0 0 0 0 0 0 0 0 0 0 0 0 0 0 "/>
</feComponentTransfer>
<feComposite operator="in" in2="effect1_innerShadow_94_103" in="coloredNoise1" result="noise1Clipped" />
<feFlood flood-color="rgba(0, 0, 0, 0.25)" result="color1Flood" />
<feComposite operator="in" in2="noise1Clipped" in="color1Flood" result="color1" />
<feMerge result="effect2_noise_94_103">
<feMergeNode in="effect1_innerShadow_94_103" />
<feMergeNode in="color1" />
</feMerge>
</filter>
<linearGradient id="paint0_linear_94_103" x1="79.132" y1="155.5" x2="631.632" y2="359.5" gradientUnits="userSpaceOnUse">
<stop stop-color="#45D2DA"/>
<stop offset="0.413462" stop-color="#BA73E9"/>
<stop offset="0.968189" stop-color="#EF87B4"/>
</linearGradient>
<linearGradient id="paint1_linear_94_103" x1="64.1319" y1="302" x2="545.132" y2="302" gradientUnits="userSpaceOnUse">
<stop stop-color="#1F1863"/>
<stop offset="1" stop-color="#100A4F"/>
</linearGradient>
</defs>
</svg>
