<svg width="258" height="258" viewBox="0 0 258 258" fill="none" xmlns="http://www.w3.org/2000/svg">
<g filter="url(#filter0_in_24_27)">
<path d="M91.3297 15.9441C112.147 -4.87308 145.898 -4.87308 166.715 15.9441L242.101 91.3299C262.918 112.147 262.918 145.898 242.101 166.716L166.715 242.101C145.898 262.919 112.147 262.919 91.3297 242.101L15.944 166.716C-4.87324 145.898 -4.87325 112.147 15.944 91.3299L91.3297 15.9441Z" fill="url(#paint0_linear_24_27)"/>
</g>
<path d="M98.6217 38.6832C115.275 22.0295 142.277 22.0295 158.93 38.6832L219.239 98.9918C235.893 115.646 235.893 142.647 219.239 159.3L158.93 219.609C142.277 236.263 115.275 236.263 98.6217 219.609L38.3131 159.3C21.6593 142.647 21.6593 115.646 38.3131 98.9918L98.6217 38.6832Z" fill="url(#paint1_linear_24_27)"/>
<path d="M72.7127 104.928C75.2747 104.928 77.503 105.219 79.3976 105.8C81.3138 106.36 82.8316 106.963 83.9512 107.609C85.0922 108.255 85.7812 108.675 86.018 108.868L82.0781 115.424C81.7336 115.144 81.1415 114.757 80.3019 114.261C79.4838 113.745 78.4934 113.293 77.3308 112.905C76.1682 112.496 74.9087 112.292 73.5523 112.292C71.5931 112.292 70.0214 112.668 68.8373 113.422C67.6747 114.154 67.0934 115.22 67.0934 116.619C67.0934 117.566 67.4056 118.417 68.0299 119.17C68.6543 119.902 69.5693 120.591 70.775 121.237C72.0022 121.883 73.4985 122.561 75.2639 123.272C76.8141 123.874 78.2889 124.574 79.6883 125.371C81.1092 126.167 82.3687 127.104 83.4667 128.18C84.5863 129.257 85.469 130.506 86.1149 131.927C86.7823 133.348 87.116 134.973 87.116 136.803C87.116 138.848 86.6962 140.635 85.8565 142.164C85.0384 143.693 83.8973 144.974 82.4333 146.007C80.9908 147.04 79.333 147.816 77.46 148.332C75.5869 148.849 73.6169 149.107 71.5501 149.107C68.7512 149.107 66.2322 148.784 63.9931 148.138C61.7756 147.471 59.9778 146.761 58.5999 146.007C57.222 145.253 56.4147 144.769 56.1778 144.554L60.3116 137.74C60.5699 137.933 61.0543 138.246 61.7648 138.676C62.4968 139.107 63.3795 139.548 64.413 140C65.4679 140.452 66.609 140.84 67.8362 141.163C69.0849 141.486 70.3552 141.647 71.6469 141.647C73.9721 141.647 75.7268 141.163 76.911 140.194C78.0951 139.225 78.6872 137.966 78.6872 136.416C78.6872 135.253 78.3104 134.23 77.5568 133.348C76.8033 132.465 75.7376 131.657 74.3597 130.925C73.0033 130.172 71.3778 129.408 69.4832 128.633C67.5886 127.836 65.8232 126.91 64.1869 125.855C62.5722 124.779 61.2696 123.465 60.2793 121.915C59.2889 120.344 58.7937 118.417 58.7937 116.135C58.7937 113.874 59.4288 111.904 60.6991 110.225C61.9909 108.545 63.6917 107.243 65.8016 106.317C67.9331 105.391 70.2367 104.928 72.7127 104.928ZM101.348 148.332H93.1132V103.895H101.348V148.332ZM114.094 136.9C114.158 138.106 114.481 139.182 115.062 140.129C115.644 141.077 116.483 141.819 117.581 142.358C118.701 142.896 120.036 143.165 121.586 143.165C122.985 143.165 124.213 142.993 125.267 142.648C126.344 142.304 127.248 141.884 127.98 141.389C128.734 140.872 129.294 140.377 129.66 139.903L133.05 144.941C132.448 145.695 131.64 146.395 130.628 147.04C129.638 147.665 128.368 148.16 126.818 148.526C125.289 148.914 123.373 149.107 121.069 149.107C118.163 149.107 115.611 148.537 113.415 147.396C111.219 146.255 109.508 144.608 108.281 142.455C107.053 140.302 106.44 137.74 106.44 134.769C106.44 132.185 106.989 129.86 108.087 127.793C109.185 125.705 110.778 124.057 112.866 122.852C114.976 121.646 117.506 121.043 120.456 121.043C123.233 121.043 125.634 121.582 127.657 122.658C129.703 123.713 131.285 125.263 132.405 127.308C133.524 129.354 134.084 131.851 134.084 134.801C134.084 134.973 134.073 135.328 134.052 135.867C134.052 136.383 134.03 136.728 133.987 136.9H114.094ZM126.398 131.83C126.376 131.141 126.161 130.398 125.752 129.601C125.364 128.805 124.751 128.127 123.911 127.567C123.071 127.007 121.952 126.727 120.552 126.727C119.153 126.727 118.001 126.996 117.097 127.535C116.214 128.073 115.547 128.74 115.095 129.537C114.643 130.312 114.384 131.076 114.32 131.83H126.398ZM160.13 148.332V143.714C159.936 144.188 159.441 144.855 158.644 145.716C157.848 146.578 156.771 147.363 155.415 148.074C154.08 148.763 152.508 149.107 150.7 149.107C148.159 149.107 145.91 148.504 143.95 147.299C141.991 146.072 140.452 144.403 139.332 142.293C138.234 140.162 137.685 137.761 137.685 135.091C137.685 132.422 138.234 130.032 139.332 127.922C140.452 125.791 141.991 124.111 143.95 122.884C145.91 121.657 148.159 121.043 150.7 121.043C152.465 121.043 153.994 121.345 155.286 121.948C156.599 122.529 157.654 123.218 158.451 124.014C159.269 124.79 159.796 125.489 160.033 126.114V121.818H168.171V148.332H160.13ZM145.727 135.091C145.727 136.577 146.06 137.89 146.728 139.031C147.395 140.151 148.278 141.023 149.376 141.647C150.474 142.272 151.669 142.584 152.961 142.584C154.317 142.584 155.523 142.272 156.578 141.647C157.633 141.001 158.461 140.119 159.064 138.999C159.689 137.858 160.001 136.555 160.001 135.091C160.001 133.627 159.689 132.336 159.064 131.216C158.461 130.075 157.633 129.182 156.578 128.536C155.523 127.89 154.317 127.567 152.961 127.567C151.669 127.567 150.474 127.89 149.376 128.536C148.278 129.16 147.395 130.043 146.728 131.184C146.06 132.303 145.727 133.606 145.727 135.091ZM191.957 121.818H201.387L188.437 134.478L202.549 148.332H192.893L181.881 137.255V148.332H173.678V103.895H181.881V131.539L191.957 121.818Z" fill="white"/>
<defs>
<filter id="filter0_in_24_27" x="0.331055" y="0.331223" width="258.236" height="258.236" filterUnits="userSpaceOnUse" color-interpolation-filters="sRGB">
<feFlood flood-opacity="0" result="BackgroundImageFix"/>
<feBlend mode="normal" in="SourceGraphic" in2="BackgroundImageFix" result="shape"/>
<feColorMatrix in="SourceAlpha" type="matrix" values="0 0 0 0 0 0 0 0 0 0 0 0 0 0 0 0 0 0 127 0" result="hardAlpha"/>
<feOffset dx="0.852893" dy="0.852893"/>
<feGaussianBlur stdDeviation="1.27934"/>
<feComposite in2="hardAlpha" operator="arithmetic" k2="-1" k3="1"/>
<feColorMatrix type="matrix" values="0 0 0 0 1 0 0 0 0 1 0 0 0 0 1 0 0 0 0.25 0"/>
<feBlend mode="normal" in2="shape" result="effect1_innerShadow_24_27"/>
<feTurbulence type="fractalNoise" baseFrequency="3.9082686901092529 3.9082686901092529" stitchTiles="stitch" numOctaves="3" result="noise" seed="47" />
<feColorMatrix in="noise" type="luminanceToAlpha" result="alphaNoise" />
<feComponentTransfer in="alphaNoise" result="coloredNoise1">
<feFuncA type="discrete" tableValues="0 0 0 0 0 0 0 0 0 1 1 1 1 1 1 1 1 1 1 1 1 1 1 1 1 1 1 1 1 1 1 1 1 1 1 1 1 1 1 1 0 0 0 0 0 0 0 0 0 0 0 0 0 0 0 0 0 0 0 0 0 0 0 0 0 0 0 0 0 0 0 0 0 0 0 0 0 0 0 0 0 0 0 0 0 0 0 0 0 0 0 0 0 0 0 0 0 0 0 0 "/>
</feComponentTransfer>
<feComposite operator="in" in2="effect1_innerShadow_24_27" in="coloredNoise1" result="noise1Clipped" />
<feFlood flood-color="rgba(0, 0, 0, 0.25)" result="color1Flood" />
<feComposite operator="in" in2="noise1Clipped" in="color1Flood" result="color1" />
<feMerge result="effect2_noise_24_27">
<feMergeNode in="effect1_innerShadow_24_27" />
<feMergeNode in="color1" />
</feMerge>
</filter>
<linearGradient id="paint0_linear_24_27" x1="33.7454" y1="66.3124" x2="269.357" y2="153.307" gradientUnits="userSpaceOnUse">
<stop stop-color="#45D2DA"/>
<stop offset="0.413462" stop-color="#BA73E9"/>
<stop offset="0.968189" stop-color="#EF87B4"/>
</linearGradient>
<linearGradient id="paint1_linear_24_27" x1="27.3488" y1="128.787" x2="232.469" y2="128.787" gradientUnits="userSpaceOnUse">
<stop stop-color="#1F1863"/>
<stop offset="1" stop-color="#100A4F"/>
</linearGradient>
</defs>
</svg>
